# Blender v2.93.2 OBJ File: ''
# www.blender.org
mtllib untexturedFawcet.mtl
o Cylinder_Cylinder.004
v -0.307860 0.000000 -2.551549
v 0.021405 0.000000 -2.518075
v 0.338016 0.000000 -2.418940
v 0.629807 0.000000 -2.257953
v 0.885564 0.000000 -2.041302
v 1.095458 0.000000 -1.777311
v 1.251424 0.000000 -1.476126
v 1.347466 0.000000 -1.149322
v 1.379896 0.000000 -0.809456
v 1.347466 0.000000 -0.469591
v 1.251424 0.000000 -0.142786
v 1.095458 0.000000 0.158398
v 0.885564 0.000000 0.422389
v 0.629807 0.000000 0.639041
v 0.338016 0.000000 0.800027
v 0.021405 0.000000 0.899163
v -0.307860 0.000000 0.932636
v -0.307860 4.595638 0.413691
v -0.637125 0.000000 0.899163
v -0.953736 0.000000 0.800027
v -1.245527 0.000000 0.639041
v -1.501284 0.000000 0.422389
v -1.711178 0.000000 0.158399
v -1.867144 0.000000 -0.142786
v -1.963187 0.000000 -0.469591
v -1.995616 0.000000 -0.809456
v -1.963187 0.000000 -1.149322
v -1.867144 0.000000 -1.476127
v -1.711179 0.000000 -1.777311
v -1.501284 0.000000 -2.041302
v -1.245527 0.000000 -2.257953
v -0.953736 0.000000 -2.418940
v -0.637125 0.000000 -2.518075
v -0.307860 2.297819 -2.292076
v -0.024851 2.297819 -2.263588
v 0.247282 2.297819 -2.179218
v 0.498081 2.297819 -2.042210
v 0.717908 2.297819 -1.857827
v 0.898315 2.297819 -1.633156
v 1.032370 2.297819 -1.376830
v 1.114921 2.297819 -1.098701
v 1.142795 2.297819 -0.809456
v 1.114921 2.297819 -0.520212
v 1.032370 2.297819 -0.242082
v 0.898315 2.297819 0.014243
v 0.717908 2.297819 0.238914
v 0.498081 2.297819 0.423297
v 0.247282 2.297819 0.560306
v -0.024851 2.297819 0.644675
v -0.307860 2.297819 0.673163
v -0.590869 2.297819 0.644675
v -0.863002 2.297819 0.560306
v -1.113801 2.297819 0.423297
v -1.333628 2.297819 0.238914
v -1.514035 2.297819 0.014243
v -1.648090 2.297819 -0.242082
v -1.730641 2.297819 -0.520211
v -1.758515 2.297819 -0.809456
v -1.730641 2.297819 -1.098701
v -1.648090 2.297819 -1.376831
v -1.514036 2.297819 -1.633156
v -1.333628 2.297819 -1.857827
v -1.113801 2.297819 -2.042210
v -0.863002 2.297819 -2.179219
v -0.590869 2.297819 -2.263588
v -0.307860 4.595638 -1.682122
v -0.307860 4.249754 -2.071661
v -0.181756 4.595638 -1.669603
v -0.064144 4.249733 -2.047410
v -0.053353 4.595638 -1.630345
v 0.170208 4.249676 -1.975590
v 0.075422 4.595638 -1.560969
v 0.386192 4.249597 -1.858956
v 0.197936 4.595638 -1.459630
v 0.575506 4.249509 -1.701989
v 0.305248 4.595638 -1.327835
v 0.730876 4.249428 -1.510720
v 0.388726 4.595638 -1.170424
v 0.846328 4.249363 -1.292498
v 0.441615 4.595638 -0.994695
v 0.917423 4.249321 -1.055710
v 0.459717 4.595638 -0.809456
v 0.941430 4.249304 -0.809456
v 0.441615 4.595638 -0.624218
v 0.917424 4.249313 -0.563203
v 0.388727 4.595638 -0.448489
v 0.846329 4.249347 -0.326414
v 0.305248 4.595638 -0.291077
v 0.730878 4.249402 -0.108191
v 0.197936 4.595638 -0.159283
v 0.575509 4.249471 0.083080
v 0.075422 4.595638 -0.057944
v 0.386195 4.249543 0.240049
v -0.053353 4.595638 0.011432
v 0.170211 4.249603 0.356684
v -0.064142 4.249635 0.428509
v -0.307860 4.595638 0.413691
v -0.307860 4.595638 0.413691
v -0.551578 4.249636 0.428509
v -0.562366 4.595638 0.011433
v -0.785931 4.249603 0.356684
v -0.691142 4.595638 -0.057944
v -1.001915 4.249543 0.240048
v -0.813656 4.595638 -0.159283
v -1.191229 4.249471 0.083080
v -0.920969 4.595638 -0.291077
v -1.346598 4.249402 -0.108191
v -1.004447 4.595638 -0.448488
v -1.462049 4.249347 -0.326414
v -1.057335 4.595638 -0.624218
v -1.533144 4.249313 -0.563203
v -1.075437 4.595638 -0.809456
v -1.557150 4.249304 -0.809456
v -1.057335 4.595638 -0.994695
v -1.533144 4.249321 -1.055710
v -1.004447 4.595638 -1.170424
v -1.462048 4.249363 -1.292498
v -0.920969 4.595638 -1.327835
v -1.346596 4.249428 -1.510720
v -0.813656 4.595638 -1.459630
v -1.191227 4.249509 -1.701989
v -0.691142 4.595638 -1.560969
v -1.001912 4.249597 -1.858956
v -0.562367 4.595638 -1.630345
v -0.785928 4.249676 -1.975590
v -0.433964 4.595638 -1.669604
v -0.551576 4.249733 -2.047411
v -0.307860 7.596948 -1.757664
v -0.181756 7.596948 -1.745146
v -0.053353 7.596948 -1.705888
v 0.075422 7.596948 -1.636512
v 0.197936 7.596948 -1.535172
v 0.305248 7.596948 -1.403378
v 0.388726 7.596948 -1.245967
v 0.441615 7.596948 -1.070238
v 0.459717 7.596948 -0.884999
v 0.441615 7.596948 -0.699761
v 0.388727 7.596948 -0.524031
v 0.305248 7.596948 -0.366620
v 0.197936 7.596948 -0.234826
v 0.075422 7.596948 -0.133486
v -0.053353 7.596948 -0.064110
v -0.562366 7.596948 -0.064110
v -0.691142 7.596948 -0.133487
v -0.813656 7.596948 -0.234826
v -0.920969 7.596948 -0.366620
v -1.004447 7.596948 -0.524031
v -1.057335 7.596948 -0.699760
v -1.075437 7.596948 -0.884999
v -1.057335 7.596948 -1.070238
v -1.004447 7.596948 -1.245967
v -0.920969 7.596948 -1.403378
v -0.813656 7.596948 -1.535172
v -0.691142 7.596948 -1.636512
v -0.562367 7.596948 -1.705888
v -0.433964 7.596948 -1.745146
vt 0.213627 0.189585
vt 0.187258 0.107842
vt 0.201084 0.104294
vt 0.214227 0.189440
vt 0.215475 0.189451
vt 0.230366 0.103109
vt 0.246347 0.105840
vt 0.216127 0.189617
vt 0.263075 0.111801
vt 0.216783 0.189917
vt 0.279721 0.121843
vt 0.217410 0.190370
vt 0.294861 0.136415
vt 0.217958 0.190982
vt 0.306783 0.155203
vt 0.218373 0.191732
vt 0.314016 0.177028
vt 0.218606 0.192579
vt 0.315944 0.200164
vt 0.218645 0.193456
vt 0.312153 0.222735
vt 0.218481 0.194300
vt 0.303346 0.242866
vt 0.218146 0.195053
vt 0.290951 0.259345
vt 0.217687 0.195680
vt 0.276557 0.271853
vt 0.217151 0.196169
vt 0.261400 0.280773
vt 0.216577 0.196529
vt 0.245404 0.283398
vt 0.215986 0.196777
vt 0.235625 0.309384
vt 0.233311 0.309590
vt 0.215385 0.196947
vt 0.233264 0.309646
vt 0.214681 0.283055
vt 0.214760 0.196971
vt 0.199506 0.283803
vt 0.214121 0.196917
vt 0.183335 0.279236
vt 0.213463 0.196751
vt 0.167203 0.271596
vt 0.212802 0.196446
vt 0.151882 0.260312
vt 0.212172 0.195985
vt 0.138598 0.245216
vt 0.211624 0.195364
vt 0.128715 0.226805
vt 0.211214 0.194605
vt 0.123304 0.206244
vt 0.210988 0.193754
vt 0.122620 0.185046
vt 0.210957 0.192875
vt 0.126894 0.164758
vt 0.211129 0.192033
vt 0.135396 0.146884
vt 0.211469 0.191284
vt 0.146850 0.132336
vt 0.211931 0.190664
vt 0.159900 0.121285
vt 0.212467 0.190181
vt 0.173531 0.113328
vt 0.213039 0.189826
vt 0.215350 0.102774
vt 0.214842 0.189398
vt 0.214776 0.193010
vt 0.214797 0.193009
vt 0.214818 0.193014
vt 0.214840 0.193025
vt 0.214864 0.193040
vt 0.214886 0.193061
vt 0.214905 0.193087
vt 0.214920 0.193117
vt 0.214929 0.193150
vt 0.214930 0.193184
vt 0.214925 0.193217
vt 0.214914 0.193247
vt 0.214900 0.193274
vt 0.214883 0.193296
vt 0.214864 0.193312
vt 0.214845 0.193323
vt 0.214826 0.193329
vt 0.214805 0.193330
vt 0.214784 0.193325
vt 0.214761 0.193314
vt 0.214738 0.193299
vt 0.214716 0.193278
vt 0.214697 0.193252
vt 0.214682 0.193222
vt 0.214673 0.193189
vt 0.214672 0.193155
vt 0.214677 0.193122
vt 0.214688 0.193092
vt 0.214702 0.193065
vt 0.214719 0.193043
vt 0.214738 0.193026
vt 0.214757 0.193015
vt 0.181920 0.001178
vt 0.207939 0.000096
vt 0.235974 0.001890
vt 0.267364 0.008077
vt 0.301636 0.020999
vt 0.336245 0.042815
vt 0.367157 0.074208
vt 0.390202 0.113572
vt 0.402668 0.157266
vt 0.412592 0.203009
vt 0.410480 0.251496
vt 0.396248 0.297752
vt 0.372478 0.337535
vt 0.343298 0.368683
vt 0.312568 0.391419
vt 0.168277 0.380394
vt 0.142242 0.366855
vt 0.115154 0.348248
vt 0.088981 0.323339
vt 0.066631 0.291948
vt 0.051050 0.255425
vt 0.044143 0.216547
vt 0.039290 0.176511
vt 0.044327 0.135296
vt 0.059027 0.096955
vt 0.080940 0.064773
vt 0.106469 0.040154
vt 0.132464 0.022524
vt 0.157440 0.010146
vt 0.229604 0.998097
vt 0.193510 0.999904
vt 0.158110 0.992634
vt 0.122798 0.975620
vt 0.088216 0.947679
vt 0.056293 0.908285
vt 0.029524 0.858178
vt 0.010221 0.799301
vt 0.000096 0.734445
vt 0.000096 0.666894
vt 0.010358 0.600128
vt 0.030219 0.537563
vt 0.058243 0.482302
vt 0.092314 0.436844
vt 0.129850 0.402757
vt 0.347151 0.419360
vt 0.379073 0.458754
vt 0.405842 0.508860
vt 0.425146 0.567738
vt 0.435271 0.632594
vt 0.435271 0.700144
vt 0.425008 0.766910
vt 0.405148 0.829475
vt 0.377124 0.884737
vt 0.343053 0.930194
vt 0.305516 0.964281
vt 0.267090 0.986645
vt 0.688194 0.021849
vt 0.687918 0.034832
vt 0.438372 0.034831
vt 0.438648 0.021847
vt 0.685262 0.148601
vt 0.685117 0.158763
vt 0.435571 0.158762
vt 0.435716 0.148600
vt 0.685750 0.227941
vt 0.686079 0.242101
vt 0.436533 0.242101
vt 0.436203 0.227941
vt 0.685035 0.184246
vt 0.685117 0.193206
vt 0.435571 0.193207
vt 0.435489 0.184246
vt 0.686446 0.094867
vt 0.686079 0.109868
vt 0.436533 0.109868
vt 0.436900 0.094867
vt 0.687589 0.302977
vt 0.687918 0.317137
vt 0.438372 0.317139
vt 0.438043 0.302978
vt 0.687589 0.048992
vt 0.438043 0.048991
vt 0.686446 0.257102
vt 0.436900 0.257103
vt 0.685035 0.167723
vt 0.435489 0.167723
vt 0.685750 0.124029
vt 0.436203 0.124028
vt 0.685262 0.203368
vt 0.435716 0.203369
vt 0.688194 0.330121
vt 0.438648 0.330122
vt 0.685009 0.175985
vt 0.435462 0.175985
vt 0.687221 0.063993
vt 0.437675 0.063992
vt 0.686834 0.272539
vt 0.437288 0.272540
vt 0.688551 0.000097
vt 0.688406 0.010260
vt 0.438860 0.010258
vt 0.439005 0.000096
vt 0.685474 0.137012
vt 0.435928 0.137012
vt 0.685474 0.214957
vt 0.435928 0.214957
vt 0.688406 0.341710
vt 0.438860 0.341711
vt 0.686834 0.079430
vt 0.437288 0.079429
vt 0.687221 0.287976
vt 0.437675 0.287977
vt 0.688551 0.351872
vt 0.439005 0.351873
vn -0.0990 0.1116 -0.9888
vn 0.4746 0.1095 -0.8734
vn 0.6369 0.1078 -0.7634
vn 0.7737 0.1059 -0.6246
vn 0.8803 0.1042 -0.4628
vn 0.9532 0.1029 -0.2844
vn 0.9901 0.1022 -0.0959
vn 0.9901 0.1022 0.0959
vn 0.9532 0.1029 0.2844
vn 0.8803 0.1042 0.4628
vn 0.7737 0.1059 0.6246
vn 0.6369 0.1078 0.7634
vn 0.4746 0.1095 0.8734
vn 0.2929 0.1109 0.9497
vn 0.0990 0.1116 0.9888
vn -0.0990 0.1116 0.9888
vn -0.2929 0.1109 0.9497
vn -0.4746 0.1095 0.8734
vn -0.6369 0.1078 0.7634
vn -0.7737 0.1059 0.6246
vn -0.8803 0.1042 0.4628
vn -0.9532 0.1029 0.2844
vn -0.9901 0.1022 0.0959
vn -0.9901 0.1022 -0.0959
vn -0.9532 0.1029 -0.2844
vn -0.8803 0.1042 -0.4628
vn -0.7737 0.1059 -0.6246
vn -0.6369 0.1078 -0.7634
vn -0.4746 0.1095 -0.8734
vn -0.2929 0.1109 -0.9497
vn 0.0990 0.1116 -0.9888
vn 0.2929 0.1109 -0.9497
vn 0.0000 -1.0000 0.0000
vn -0.1001 0.1116 -0.9887
vn -0.2957 0.1108 -0.9488
vn -0.4785 0.1095 -0.8712
vn -0.6409 0.1078 -0.7600
vn -0.7770 0.1059 -0.6206
vn -0.8823 0.1042 -0.4590
vn -0.9540 0.1029 -0.2816
vn -0.9902 0.1022 -0.0949
vn -0.9902 0.1022 0.0949
vn -0.9540 0.1029 0.2816
vn -0.8823 0.1042 0.4590
vn -0.7770 0.1059 0.6206
vn -0.6409 0.1078 0.7600
vn -0.4785 0.1095 0.8712
vn -0.2957 0.1109 0.9488
vn -0.1001 0.1116 0.9887
vn 0.1001 0.1116 0.9887
vn 0.2957 0.1109 0.9488
vn 0.4785 0.1095 0.8712
vn 0.6409 0.1078 0.7600
vn 0.7770 0.1059 0.6206
vn 0.8823 0.1042 0.4590
vn 0.9540 0.1029 0.2816
vn 0.9902 0.1022 0.0949
vn 0.9902 0.1022 -0.0949
vn 0.9540 0.1029 -0.2816
vn 0.8823 0.1042 -0.4590
vn 0.7770 0.1059 -0.6206
vn 0.6409 0.1078 -0.7600
vn 0.4785 0.1095 -0.8712
vn 0.2957 0.1109 -0.9488
vn 0.1001 0.1116 -0.9887
vn 0.0659 0.7461 -0.6625
vn 0.1928 0.7528 -0.6294
vn 0.3064 0.7642 -0.5676
vn 0.4014 0.7773 -0.4844
vn 0.4760 0.7898 -0.3868
vn 0.5303 0.8000 -0.2807
vn 0.5655 0.8071 -0.1699
vn 0.5828 0.8106 -0.0568
vn 0.5828 0.8106 0.0569
vn 0.5655 0.8070 0.1699
vn 0.5303 0.8000 0.2807
vn 0.4760 0.7898 0.3869
vn 0.4015 0.7773 0.4844
vn 0.3064 0.7641 0.5677
vn 0.5321 0.6448 0.5487
vn -0.5321 0.6448 0.5487
vn -0.3064 0.7641 0.5677
vn -0.4014 0.7773 0.4844
vn -0.4760 0.7898 0.3869
vn -0.5303 0.8000 0.2807
vn -0.5655 0.8070 0.1699
vn -0.5828 0.8106 0.0569
vn -0.5828 0.8106 -0.0568
vn -0.5655 0.8071 -0.1699
vn -0.5303 0.8000 -0.2807
vn -0.4760 0.7898 -0.3868
vn -0.4014 0.7773 -0.4844
vn -0.3064 0.7642 -0.5676
vn -0.1928 0.7528 -0.6294
vn -0.0659 0.7461 -0.6625
vn 0.0000 1.0000 0.0000
vn 0.7754 -0.0159 -0.6313
vn 0.4742 0.0222 0.8802
vn -0.8834 0.0118 0.4685
vn -0.2923 0.0241 0.9560
vn 0.9575 0.0073 0.2882
vn -0.8834 -0.0118 -0.4685
vn 0.8834 -0.0118 -0.4685
vn -0.9575 0.0073 0.2882
vn 0.2923 0.0241 0.9560
vn 0.8834 0.0118 0.4685
vn -0.4742 0.0222 0.8802
vn -0.7754 -0.0159 -0.6313
vn 0.0988 0.0250 0.9948
vn 0.9575 -0.0073 -0.2882
vn -0.9953 0.0024 0.0973
vn 0.4742 -0.0222 -0.8802
vn 0.7754 0.0159 0.6313
vn -0.6373 0.0194 0.7704
vn -0.6373 -0.0194 -0.7704
vn 0.9953 -0.0024 -0.0973
vn -0.9953 -0.0024 -0.0973
vn 0.6373 -0.0194 -0.7704
vn 0.6373 0.0194 0.7704
vn -0.7754 0.0159 0.6313
vn -0.4742 -0.0222 -0.8802
vn 0.9953 0.0024 0.0973
vn -0.0988 0.0250 0.9948
vn -0.9575 -0.0073 -0.2882
usemtl None
s off
f 65/1/1 127/2/1 67/3/1 34/4/1
f 36/5/2 71/6/2 73/7/2 37/8/2
f 37/8/3 73/7/3 75/9/3 38/10/3
f 38/10/4 75/9/4 77/11/4 39/12/4
f 39/12/5 77/11/5 79/13/5 40/14/5
f 40/14/6 79/13/6 81/15/6 41/16/6
f 41/16/7 81/15/7 83/17/7 42/18/7
f 42/18/8 83/17/8 85/19/8 43/20/8
f 43/20/9 85/19/9 87/21/9 44/22/9
f 44/22/10 87/21/10 89/23/10 45/24/10
f 45/24/11 89/23/11 91/25/11 46/26/11
f 46/26/12 91/25/12 93/27/12 47/28/12
f 47/28/13 93/27/13 95/29/13 48/30/13
f 48/30/14 95/29/14 96/31/14 49/32/14
f 49/32/15 96/31/15 97/33/15 18/34/15 50/35/15
f 50/35/16 18/34/16 98/36/16 99/37/16 51/38/16
f 51/38/17 99/37/17 101/39/17 52/40/17
f 52/40/18 101/39/18 103/41/18 53/42/18
f 53/42/19 103/41/19 105/43/19 54/44/19
f 54/44/20 105/43/20 107/45/20 55/46/20
f 55/46/21 107/45/21 109/47/21 56/48/21
f 56/48/22 109/47/22 111/49/22 57/50/22
f 57/50/23 111/49/23 113/51/23 58/52/23
f 58/52/24 113/51/24 115/53/24 59/54/24
f 59/54/25 115/53/25 117/55/25 60/56/25
f 60/56/26 117/55/26 119/57/26 61/58/26
f 61/58/27 119/57/27 121/59/27 62/60/27
f 62/60/28 121/59/28 123/61/28 63/62/28
f 63/62/29 123/61/29 125/63/29 64/64/29
f 64/64/30 125/63/30 127/2/30 65/1/30
f 34/4/31 67/3/31 69/65/31 35/66/31
f 35/66/32 69/65/32 71/6/32 36/5/32
f 1/67/33 2/68/33 3/69/33 4/70/33 5/71/33 6/72/33 7/73/33 8/74/33 9/75/33 10/76/33 11/77/33 12/78/33 13/79/33 14/80/33 15/81/33 16/82/33 17/83/33 19/84/33 20/85/33 21/86/33 22/87/33 23/88/33 24/89/33 25/90/33 26/91/33 27/92/33 28/93/33 29/94/33 30/95/33 31/96/33 32/97/33 33/98/33
f 33/98/34 65/1/34 34/4/34 1/67/34
f 32/97/35 64/64/35 65/1/35 33/98/35
f 31/96/36 63/62/36 64/64/36 32/97/36
f 30/95/37 62/60/37 63/62/37 31/96/37
f 29/94/38 61/58/38 62/60/38 30/95/38
f 28/93/39 60/56/39 61/58/39 29/94/39
f 27/92/40 59/54/40 60/56/40 28/93/40
f 26/91/41 58/52/41 59/54/41 27/92/41
f 25/90/42 57/50/42 58/52/42 26/91/42
f 24/89/43 56/48/43 57/50/43 25/90/43
f 23/88/44 55/46/44 56/48/44 24/89/44
f 22/87/45 54/44/45 55/46/45 23/88/45
f 21/86/46 53/42/46 54/44/46 22/87/46
f 20/85/47 52/40/47 53/42/47 21/86/47
f 19/84/48 51/38/48 52/40/48 20/85/48
f 17/83/49 50/35/49 51/38/49 19/84/49
f 16/82/50 49/32/50 50/35/50 17/83/50
f 15/81/51 48/30/51 49/32/51 16/82/51
f 14/80/52 47/28/52 48/30/52 15/81/52
f 13/79/53 46/26/53 47/28/53 14/80/53
f 12/78/54 45/24/54 46/26/54 13/79/54
f 11/77/55 44/22/55 45/24/55 12/78/55
f 10/76/56 43/20/56 44/22/56 11/77/56
f 9/75/57 42/18/57 43/20/57 10/76/57
f 8/74/58 41/16/58 42/18/58 9/75/58
f 7/73/59 40/14/59 41/16/59 8/74/59
f 6/72/60 39/12/60 40/14/60 7/73/60
f 5/71/61 38/10/61 39/12/61 6/72/61
f 4/70/62 37/8/62 38/10/62 5/71/62
f 3/69/63 36/5/63 37/8/63 4/70/63
f 2/68/64 35/66/64 36/5/64 3/69/64
f 1/67/65 34/4/65 35/66/65 2/68/65
f 69/65/66 67/3/66 66/99/66 68/100/66
f 71/6/67 69/65/67 68/100/67 70/101/67
f 73/7/68 71/6/68 70/101/68 72/102/68
f 75/9/69 73/7/69 72/102/69 74/103/69
f 77/11/70 75/9/70 74/103/70 76/104/70
f 79/13/71 77/11/71 76/104/71 78/105/71
f 81/15/72 79/13/72 78/105/72 80/106/72
f 83/17/73 81/15/73 80/106/73 82/107/73
f 85/19/74 83/17/74 82/107/74 84/108/74
f 87/21/75 85/19/75 84/108/75 86/109/75
f 89/23/76 87/21/76 86/109/76 88/110/76
f 91/25/77 89/23/77 88/110/77 90/111/77
f 93/27/78 91/25/78 90/111/78 92/112/78
f 95/29/79 93/27/79 92/112/79 94/113/79
f 96/31/80 95/29/80 94/113/80 97/33/80
f 101/39/81 99/37/81 98/36/81 100/114/81
f 103/41/82 101/39/82 100/114/82 102/115/82
f 105/43/83 103/41/83 102/115/83 104/116/83
f 107/45/84 105/43/84 104/116/84 106/117/84
f 109/47/85 107/45/85 106/117/85 108/118/85
f 111/49/86 109/47/86 108/118/86 110/119/86
f 113/51/87 111/49/87 110/119/87 112/120/87
f 115/53/88 113/51/88 112/120/88 114/121/88
f 117/55/89 115/53/89 114/121/89 116/122/89
f 119/57/90 117/55/90 116/122/90 118/123/90
f 121/59/91 119/57/91 118/123/91 120/124/91
f 123/61/92 121/59/92 120/124/92 122/125/92
f 125/63/93 123/61/93 122/125/93 124/126/93
f 127/2/94 125/63/94 124/126/94 126/127/94
f 67/3/95 127/2/95 126/127/95 66/99/95
f 68/128/96 66/129/96 126/130/96 124/131/96 122/132/96 120/133/96 118/134/96 116/135/96 114/136/96 112/137/96 110/138/96 108/139/96 106/140/96 104/141/96 102/142/96 100/114/96 98/36/96 18/34/96 97/33/96 94/113/96 92/143/96 90/144/96 88/145/96 86/146/96 84/147/96 82/148/96 80/149/96 78/150/96 76/151/96 74/152/96 72/153/96 70/154/96
f 104/155/97 106/156/97 146/157/97 145/158/97
f 122/159/98 124/160/98 155/161/98 154/162/98
f 76/163/99 78/164/99 134/165/99 133/166/99
f 68/167/100 70/168/100 130/169/100 129/170/100
f 114/171/101 116/172/101 151/173/101 150/174/101
f 86/175/102 88/176/102 139/177/102 138/178/102
f 106/156/103 108/179/103 147/180/103 146/157/103
f 78/164/104 80/181/104 135/182/104 134/165/104
f 124/160/105 126/183/105 156/184/105 155/161/105
f 116/172/106 118/185/106 152/186/106 151/173/106
f 70/168/107 72/187/107 131/188/107 130/169/107
f 88/176/108 90/189/108 140/190/108 139/177/108
f 126/183/109 66/191/109 128/192/109 156/184/109
f 108/179/110 110/193/110 148/194/110 147/180/110
f 80/181/111 82/195/111 136/196/111 135/182/111
f 100/197/112 102/198/112 144/199/112 143/200/112
f 118/185/113 120/201/113 153/202/113 152/186/113
f 72/187/114 74/203/114 132/204/114 131/188/114
f 90/189/115 92/205/115 141/206/115 140/190/115
f 110/193/116 112/207/116 149/208/116 148/194/116
f 82/195/117 84/209/117 137/210/117 136/196/117
f 102/198/118 104/155/118 145/158/118 144/199/118
f 120/201/119 122/159/119 154/162/119 153/202/119
f 74/203/120 76/163/120 133/166/120 132/204/120
f 92/205/121 94/211/121 142/212/121 141/206/121
f 112/207/122 114/171/122 150/174/122 149/208/122
f 66/191/123 68/167/123 129/170/123 128/192/123
f 84/209/124 86/175/124 138/178/124 137/210/124
